<?xml version="1.0" encoding="UTF-8" ?>
<!DOCTYPE svg PUBLIC "-//W3C//DTD SVG 1.1//EN" "http://www.w3.org/Graphics/SVG/1.1/DTD/svg11.dtd">
<svg width="166pt" height="187pt" viewBox="0 0 166 187" version="1.1" xmlns="http://www.w3.org/2000/svg">

<path fill="#6CD5B8" d=" M 77.17 19.14 C 80.12 15.62 84.71 14.27 89.15 14.12 C 78.37 21.23 75.98 35.04 74.98 46.97 C 74.24 72.03 79.10 96.99 86.67 120.80 C 86.92 119.34 86.76 117.88 86.43 116.45 C 83.17 99.48 81.57 82.25 81.15 64.99 C 81.55 52.46 82.48 39.84 86.25 27.81 C 90.67 32.02 94.73 36.60 99.24 40.72 C 99.21 40.84 99.15 41.08 99.13 41.20 L 98.90 41.92 C 98.40 42.06 97.42 42.33 96.92 42.47 C 98.24 44.40 98.37 46.83 98.86 49.05 C 102.41 69.51 104.02 90.78 99.47 111.21 C 97.02 120.75 93.37 130.84 85.67 137.39 C 67.52 118.90 49.01 100.77 30.66 82.49 C 40.81 72.44 50.92 62.34 61.12 52.33 C 63.36 70.51 68.37 88.22 75.08 105.23 C 75.78 106.40 76.49 107.55 77.21 108.71 C 76.97 105.46 75.21 102.68 74.46 99.56 C 69.98 82.09 67.02 63.99 68.25 45.90 C 69.39 36.59 70.69 26.43 77.17 19.14 Z" />
<path fill="#1d2926" d=" M 98.90 41.92 L 99.13 41.20 C 113.18 54.69 126.77 68.68 140.63 82.39 C 129.28 93.80 117.81 105.10 106.48 116.52 C 108.53 92.70 106.09 68.49 99.33 45.56 C 98.96 44.37 98.81 43.15 98.90 41.92 Z" />
<path fill="#1d2926" d=" M 61.42 141.32 C 63.43 141.28 65.44 141.28 67.45 141.27 C 67.45 146.39 67.46 151.52 67.44 156.64 C 67.95 156.68 68.98 156.76 69.49 156.80 C 69.36 157.58 69.11 159.14 68.98 159.92 C 66.45 159.97 63.92 159.98 61.39 159.95 C 63.32 153.97 63.34 147.30 61.42 141.32 Z" />
<path fill="#1d2926" d=" M 71.18 141.93 C 73.69 139.53 77.68 143.79 74.75 145.86 C 72.34 147.93 68.64 144.12 71.18 141.93 Z" />
<path fill="#1d2926" d=" M 45.40 142.57 C 50.50 142.52 55.60 142.56 60.70 142.55 C 60.70 144.39 60.70 146.23 60.70 148.07 C 59.26 148.06 57.82 148.05 56.38 148.05 C 56.38 147.50 56.37 146.39 56.36 145.84 C 55.36 145.84 53.37 145.84 52.37 145.84 C 52.37 146.70 52.37 148.42 52.37 149.28 C 53.96 149.28 55.54 149.28 57.12 149.28 C 57.12 150.38 57.12 151.49 57.13 152.60 C 55.54 152.59 53.96 152.60 52.37 152.60 C 52.37 153.61 52.37 155.64 52.37 156.66 C 53.37 156.66 55.37 156.66 56.37 156.66 C 56.37 156.07 56.37 154.91 56.37 154.33 C 57.81 154.33 59.26 154.32 60.70 154.33 C 60.70 156.21 60.70 158.09 60.70 159.97 C 55.61 159.96 50.53 160.00 45.44 159.95 C 45.50 158.40 45.85 156.94 47.12 155.95 C 47.17 152.96 47.40 149.94 47.08 146.96 C 46.17 145.64 45.55 144.18 45.40 142.57 Z" />
<path fill="#1d2926" d=" M 111.56 142.56 C 114.78 142.54 117.99 142.54 121.21 142.57 C 121.04 144.02 120.64 145.40 120.03 146.72 C 120.93 149.29 121.86 151.85 122.57 154.49 C 123.35 151.68 124.43 148.97 125.53 146.28 C 124.61 145.25 124.20 144.02 124.30 142.56 C 126.80 142.54 129.30 142.54 131.80 142.57 C 131.86 145.16 129.76 146.84 128.91 149.11 C 127.40 152.70 125.90 156.29 124.42 159.90 C 122.87 159.95 121.32 159.98 119.78 160.03 C 117.62 155.53 115.62 150.96 113.39 146.51 C 111.93 145.66 111.58 144.16 111.56 142.56 Z" />
<path fill="#1d2926" d=" M 91.93 148.29 C 95.25 146.71 99.54 145.94 102.64 148.41 C 104.90 150.53 103.90 153.97 104.14 156.72 L 105.63 156.82 C 105.63 157.62 105.62 159.23 105.62 160.04 C 103.55 159.99 101.43 160.12 99.45 159.42 C 97.34 160.42 94.63 160.97 92.74 159.21 C 90.51 157.51 91.23 153.79 93.55 152.53 C 95.31 151.30 97.55 152.00 99.51 152.08 C 98.23 149.28 95.03 150.61 92.83 151.25 C 92.55 150.26 92.24 149.27 91.93 148.29 Z" />
<path fill="#1d2926" d=" M 69.37 147.56 C 71.39 147.53 73.41 147.52 75.43 147.53 C 75.42 150.41 75.39 153.30 75.47 156.18 C 76.46 157.19 76.90 158.44 76.80 159.94 C 74.38 159.97 71.96 159.97 69.54 159.97 C 70.98 155.91 71.00 151.57 69.37 147.56 Z" />
<path fill="#1d2926" d=" M 77.63 147.53 C 81.75 147.53 85.87 147.53 90.00 147.53 C 90.00 148.33 90.00 149.94 90.00 150.74 C 88.03 152.72 86.05 154.70 84.07 156.66 C 84.70 156.69 85.95 156.74 86.57 156.76 C 86.61 156.32 86.68 155.45 86.72 155.01 C 87.59 155.01 89.33 155.01 90.21 155.02 C 90.20 156.67 90.20 158.32 90.20 159.97 C 86.01 159.97 81.82 159.97 77.63 159.97 C 77.63 159.16 77.62 157.53 77.61 156.72 C 79.47 154.86 81.34 153.02 83.21 151.18 C 82.90 150.97 82.27 150.55 81.95 150.35 C 80.95 151.95 79.68 153.00 77.64 152.65 C 77.63 150.94 77.62 149.24 77.63 147.53 Z" />
<path fill="rgba(124,240,10,0.5)" d=" M 97.18 154.54 C 99.07 153.83 100.18 156.91 98.03 157.27 C 96.17 157.98 95.12 154.88 97.18 154.54 Z" />
</svg>
