<?xml version="1.0" encoding="UTF-8" standalone="no"?>
<svg
   xmlns:dc="http://purl.org/dc/elements/1.1/"
   xmlns:cc="http://creativecommons.org/ns#"
   xmlns:rdf="http://www.w3.org/1999/02/22-rdf-syntax-ns#"
   xmlns:svg="http://www.w3.org/2000/svg"
   xmlns="http://www.w3.org/2000/svg"
   xmlns:sodipodi="http://sodipodi.sourceforge.net/DTD/sodipodi-0.dtd"
   xmlns:inkscape="http://www.inkscape.org/namespaces/inkscape"
   width="166pt"
   height="187pt"
   viewBox="0 0 166 187"
   version="1.1"
   id="svg3062"
   inkscape:version="0.48.4 r9939"
   sodipodi:docname="logo.svg">
  <metadata
     id="metadata3088">
    <rdf:RDF>
      <cc:Work
         rdf:about="">
        <dc:format>image/svg+xml</dc:format>
        <dc:type
           rdf:resource="http://purl.org/dc/dcmitype/StillImage" />
        <dc:title></dc:title>
      </cc:Work>
    </rdf:RDF>
  </metadata>
  <defs
     id="defs3086" />
  <sodipodi:namedview
     pagecolor="#ffffff"
     bordercolor="#666666"
     borderopacity="1"
     objecttolerance="10"
     gridtolerance="10"
     guidetolerance="10"
     inkscape:pageopacity="0"
     inkscape:pageshadow="2"
     inkscape:window-width="1280"
     inkscape:window-height="917"
     id="namedview3084"
     showgrid="false"
     inkscape:zoom="1.026738"
     inkscape:cx="-55.979167"
     inkscape:cy="116.875"
     inkscape:window-x="0"
     inkscape:window-y="25"
     inkscape:window-maximized="1"
     inkscape:current-layer="svg3062" />
  <path
     d="m 66.590334,-48.558998 c 5.9,-7.04 15.08,-9.74 23.96,-10.04 -21.56,14.22 -26.34,41.84 -28.34,65.6999995 -1.48,50.1200005 8.24,100.0399985 23.38,147.6599985 0.5,-2.92 0.18,-5.84 -0.48,-8.7 -6.52,-33.94 -9.72,-68.399998 -10.56,-102.919998 0.8,-25.06 2.66,-50.3000005 10.2,-74.36 8.84,8.42 16.959996,17.58 25.979996,25.8199995 -0.06,0.24 -0.18,0.72 -0.22,0.96 l -0.46,1.44 c -1,0.28 -2.96,0.82 -3.96,1.1 2.64,3.86 2.9,8.72 3.88,13.1600005 7.1,40.92 10.32,83.46 1.22,124.319998 -4.9,19.08 -12.199996,39.26 -27.599996,52.36 -36.3,-36.98 -73.32,-73.24 -110.02,-109.799998 20.2999996,-20.1 40.52,-40.3 60.92,-60.32 4.48,36.36 14.5,71.78 27.92,105.799998 1.4,2.34 2.82,4.64 4.26,6.96 -0.48,-6.5 -4,-12.06 -5.5,-18.3 -8.96,-34.939998 -14.88,-71.139998 -12.42,-107.3199985 2.28,-18.6199995 4.88,-38.9399995 17.84,-53.5199995 z"
     id="path3064"
     inkscape:connector-curvature="0"
     style="fill:#6cd5b8" />
  <path
     d="m 110.05033,-2.9989985 0.46,-1.44 c 28.1,26.9800005 55.28,54.9600005 83,82.3800005 -22.7,22.819998 -45.64,45.419998 -68.3,68.259998 4.1,-47.639998 -0.78,-96.059998 -14.3,-141.9199985 -0.74,-2.38 -1.04,-4.81999997 -0.86,-7.28 z"
     id="path3066"
     inkscape:connector-curvature="0"
     style="fill:#1d2926" />
  <text
     xml:space="preserve"
     style="font-size:64px;font-style:normal;font-variant:normal;font-weight:normal;font-stretch:normal;line-height:125%;letter-spacing:0px;word-spacing:0px;fill:#000000;fill-opacity:1;stroke:none;font-family:ChunkFive;-inkscape-font-specification:ChunkFive"
     x="-19.183001"
     y="231.06099"
     id="text3099"
     sodipodi:linespacing="125%"><tspan
       sodipodi:role="line"
       id="tspan3101"
       x="-19.183001"
       y="231.06099">Elisa V</tspan></text>
</svg>
