<?xml version="1.0" encoding="UTF-8" standalone="no"?>
<svg
   xmlns:dc="http://purl.org/dc/elements/1.1/"
   xmlns:cc="http://creativecommons.org/ns#"
   xmlns:rdf="http://www.w3.org/1999/02/22-rdf-syntax-ns#"
   xmlns:svg="http://www.w3.org/2000/svg"
   xmlns="http://www.w3.org/2000/svg"
   xmlns:sodipodi="http://sodipodi.sourceforge.net/DTD/sodipodi-0.dtd"
   xmlns:inkscape="http://www.inkscape.org/namespaces/inkscape"
   width="166pt"
   height="187pt"
   viewBox="0 0 166 187"
   version="1.1"
   id="svg3062"
   inkscape:version="0.48.4 r9939"
   sodipodi:docname="logo.svg">
  <metadata
     id="metadata3088">
    <rdf:RDF>
      <cc:Work
         rdf:about="">
        <dc:format>image/svg+xml</dc:format>
        <dc:type
           rdf:resource="http://purl.org/dc/dcmitype/StillImage" />
        <dc:title></dc:title>
      </cc:Work>
    </rdf:RDF>
  </metadata>
  <defs
     id="defs3086" />
  <sodipodi:namedview
     pagecolor="#ffffff"
     bordercolor="#666666"
     borderopacity="1"
     objecttolerance="10"
     gridtolerance="10"
     guidetolerance="10"
     inkscape:pageopacity="0"
     inkscape:pageshadow="2"
     inkscape:window-width="1280"
     inkscape:window-height="917"
     id="namedview3084"
     showgrid="false"
     inkscape:zoom="1.026738"
     inkscape:cx="105.69792"
     inkscape:cy="116.875"
     inkscape:window-x="0"
     inkscape:window-y="25"
     inkscape:window-maximized="1"
     inkscape:current-layer="svg3062" />
  <path
     fill="#6CD5B8"
     d=" M 77.17 19.14 C 80.12 15.62 84.71 14.27 89.15 14.12 C 78.37 21.23 75.98 35.04 74.98 46.97 C 74.24 72.03 79.10 96.99 86.67 120.80 C 86.92 119.34 86.76 117.88 86.43 116.45 C 83.17 99.48 81.57 82.25 81.15 64.99 C 81.55 52.46 82.48 39.84 86.25 27.81 C 90.67 32.02 94.73 36.60 99.24 40.72 C 99.21 40.84 99.15 41.08 99.13 41.20 L 98.90 41.92 C 98.40 42.06 97.42 42.33 96.92 42.47 C 98.24 44.40 98.37 46.83 98.86 49.05 C 102.41 69.51 104.02 90.78 99.47 111.21 C 97.02 120.75 93.37 130.84 85.67 137.39 C 67.52 118.90 49.01 100.77 30.66 82.49 C 40.81 72.44 50.92 62.34 61.12 52.33 C 63.36 70.51 68.37 88.22 75.08 105.23 C 75.78 106.40 76.49 107.55 77.21 108.71 C 76.97 105.46 75.21 102.68 74.46 99.56 C 69.98 82.09 67.02 63.99 68.25 45.90 C 69.39 36.59 70.69 26.43 77.17 19.14 Z"
     id="path3064" />
  <path
     fill="#1d2926"
     d=" M 98.90 41.92 L 99.13 41.20 C 113.18 54.69 126.77 68.68 140.63 82.39 C 129.28 93.80 117.81 105.10 106.48 116.52 C 108.53 92.70 106.09 68.49 99.33 45.56 C 98.96 44.37 98.81 43.15 98.90 41.92 Z"
     id="path3066" />
  <text
     xml:space="preserve"
     style="font-size:32px;font-style:normal;font-variant:normal;font-weight:normal;font-stretch:normal;line-height:125%;letter-spacing:0px;word-spacing:0px;fill:#000000;fill-opacity:1;stroke:none;font-family:ChunkFive;-inkscape-font-specification:ChunkFive"
     x="34.283333"
     y="158.95"
     id="text3099"
     sodipodi:linespacing="125%"><tspan
       sodipodi:role="line"
       id="tspan3101"
       x="34.283333"
       y="158.95">Elisa V</tspan></text>
</svg>
